<mxfile host="Electron" agent="Mozilla/5.0 (Windows NT 10.0; Win64; x64) AppleWebKit/537.36 (KHTML, like Gecko) draw.io/27.0.5 Chrome/134.0.6998.205 Electron/35.3.0 Safari/537.36" version="27.0.5">
  <diagram name="Page-1" id="mv5y5s7_8OIxt4wLJtsS">
    <mxGraphModel dx="1213" dy="722" grid="1" gridSize="8" guides="1" tooltips="1" connect="1" arrows="1" fold="1" page="1" pageScale="1" pageWidth="1200" pageHeight="500" background="none" math="0" shadow="0">
      <root>
        <mxCell id="0" />
        <mxCell id="1" parent="0" />
        <mxCell id="wIotQ41QkvTkbfuaxGu--1" value="&lt;i&gt;User&lt;/i&gt;" style="swimlane;fontStyle=1;align=center;verticalAlign=top;childLayout=stackLayout;horizontal=1;startSize=26;horizontalStack=0;resizeParent=1;resizeParentMax=0;resizeLast=0;collapsible=1;marginBottom=0;whiteSpace=wrap;html=1;" vertex="1" parent="1">
          <mxGeometry x="60" y="270" width="240" height="190" as="geometry" />
        </mxCell>
        <mxCell id="wIotQ41QkvTkbfuaxGu--2" value="# UserName&lt;div&gt;# Password&lt;br&gt;# ID&lt;/div&gt;" style="text;strokeColor=none;fillColor=none;align=left;verticalAlign=top;spacingLeft=4;spacingRight=4;overflow=hidden;rotatable=0;points=[[0,0.5],[1,0.5]];portConstraint=eastwest;whiteSpace=wrap;html=1;" vertex="1" parent="wIotQ41QkvTkbfuaxGu--1">
          <mxGeometry y="26" width="240" height="54" as="geometry" />
        </mxCell>
        <mxCell id="wIotQ41QkvTkbfuaxGu--3" value="" style="line;strokeWidth=1;fillColor=none;align=left;verticalAlign=middle;spacingTop=-1;spacingLeft=3;spacingRight=3;rotatable=0;labelPosition=right;points=[];portConstraint=eastwest;strokeColor=inherit;" vertex="1" parent="wIotQ41QkvTkbfuaxGu--1">
          <mxGeometry y="80" width="240" height="8" as="geometry" />
        </mxCell>
        <mxCell id="wIotQ41QkvTkbfuaxGu--4" value="&lt;div&gt;+ getId() : String&lt;/div&gt;&lt;div&gt;+ setId(id:String) : void&lt;/div&gt;&lt;div&gt;+ getUsername() : String&lt;/div&gt;&lt;div&gt;+ setUsername(username:String) : void&lt;/div&gt;&lt;div&gt;+ getPassword() : String&lt;/div&gt;&lt;div&gt;+ setPassword(password:String) : void&lt;/div&gt;" style="text;strokeColor=none;fillColor=none;align=left;verticalAlign=top;spacingLeft=4;spacingRight=4;overflow=hidden;rotatable=0;points=[[0,0.5],[1,0.5]];portConstraint=eastwest;whiteSpace=wrap;html=1;" vertex="1" parent="wIotQ41QkvTkbfuaxGu--1">
          <mxGeometry y="88" width="240" height="102" as="geometry" />
        </mxCell>
        <mxCell id="wIotQ41QkvTkbfuaxGu--5" value="&lt;p style=&quot;margin:0px;margin-top:4px;text-align:center;&quot;&gt;&lt;b&gt;Admin&lt;/b&gt;&lt;/p&gt;&lt;hr size=&quot;1&quot; style=&quot;border-style:solid;&quot;&gt;&lt;p style=&quot;margin:0px;margin-left:4px;&quot;&gt;&lt;br&gt;&lt;/p&gt;&lt;hr size=&quot;1&quot; style=&quot;border-style:solid;&quot;&gt;&lt;p style=&quot;margin:0px;margin-left:4px;&quot;&gt;+ addCourse(course:Course) : void&lt;/p&gt;&lt;p style=&quot;margin:0px;margin-left:4px;&quot;&gt;+ deleteCourse(courseId:String) : void&lt;/p&gt;&lt;p style=&quot;margin:0px;margin-left:4px;&quot;&gt;+ manageUsers(user:User) : void&lt;/p&gt;" style="verticalAlign=top;align=left;overflow=fill;html=1;whiteSpace=wrap;" vertex="1" parent="1">
          <mxGeometry x="20" y="540" width="230" height="120" as="geometry" />
        </mxCell>
        <mxCell id="wIotQ41QkvTkbfuaxGu--6" value="Extends" style="endArrow=block;endSize=16;endFill=0;html=1;rounded=0;exitX=0.201;exitY=-0.033;exitDx=0;exitDy=0;exitPerimeter=0;entryX=0.193;entryY=1.039;entryDx=0;entryDy=0;entryPerimeter=0;" edge="1" parent="1" source="wIotQ41QkvTkbfuaxGu--5" target="wIotQ41QkvTkbfuaxGu--4">
          <mxGeometry width="160" relative="1" as="geometry">
            <mxPoint x="55" y="530" as="sourcePoint" />
            <mxPoint x="215" y="530" as="targetPoint" />
            <Array as="points" />
          </mxGeometry>
        </mxCell>
        <mxCell id="wIotQ41QkvTkbfuaxGu--7" value="&lt;p style=&quot;margin:0px;margin-top:4px;text-align:center;&quot;&gt;&lt;b&gt;Student&lt;/b&gt;&lt;/p&gt;&lt;hr size=&quot;1&quot; style=&quot;border-style:solid;&quot;&gt;&lt;p style=&quot;margin:0px;margin-left:4px;&quot;&gt;- email : String&lt;/p&gt;&lt;p style=&quot;margin:0px;margin-left:4px;&quot;&gt;- payment : double&lt;/p&gt;&lt;hr size=&quot;1&quot; style=&quot;border-style:solid;&quot;&gt;&lt;p style=&quot;margin:0px;margin-left:4px;&quot;&gt;+ getEmail() : String&lt;/p&gt;&lt;p style=&quot;margin:0px;margin-left:4px;&quot;&gt;+ setEmail(email:String) : void&lt;/p&gt;&lt;p style=&quot;margin:0px;margin-left:4px;&quot;&gt;+ getPayment() : double&lt;/p&gt;&lt;p style=&quot;margin:0px;margin-left:4px;&quot;&gt;+ setPayment(payment:double) : void&lt;/p&gt;&lt;p style=&quot;margin:0px;margin-left:4px;&quot;&gt;+ viewDetails() : String&lt;/p&gt;" style="verticalAlign=top;align=left;overflow=fill;html=1;whiteSpace=wrap;" vertex="1" parent="1">
          <mxGeometry x="280" y="540" width="230" height="160" as="geometry" />
        </mxCell>
        <mxCell id="wIotQ41QkvTkbfuaxGu--8" value="Extends" style="endArrow=block;endSize=16;endFill=0;html=1;rounded=0;exitX=0.167;exitY=0;exitDx=0;exitDy=0;exitPerimeter=0;entryX=0.649;entryY=1.013;entryDx=0;entryDy=0;entryPerimeter=0;" edge="1" parent="1" source="wIotQ41QkvTkbfuaxGu--7" target="wIotQ41QkvTkbfuaxGu--4">
          <mxGeometry width="160" relative="1" as="geometry">
            <mxPoint x="76" y="546" as="sourcePoint" />
            <mxPoint x="116" y="474" as="targetPoint" />
            <Array as="points" />
          </mxGeometry>
        </mxCell>
        <mxCell id="wIotQ41QkvTkbfuaxGu--9" value="&lt;p style=&quot;margin:0px;margin-top:4px;text-align:center;&quot;&gt;&lt;b&gt;Authentication&amp;nbsp;&lt;/b&gt;&lt;/p&gt;&lt;hr size=&quot;1&quot; style=&quot;border-style:solid;&quot;&gt;&lt;p style=&quot;margin:0px;margin-left:4px;&quot;&gt;- userRepo : IUserRepository&lt;/p&gt;&lt;hr size=&quot;1&quot; style=&quot;border-style:solid;&quot;&gt;&lt;p style=&quot;margin:0px;margin-left:4px;&quot;&gt;+ login(username:String, password:String, id:String) : User&lt;/p&gt;&lt;p style=&quot;margin:0px;margin-left:4px;&quot;&gt;+ signup(username:String, password:String, id:String, email:String) : boolean&lt;/p&gt;" style="verticalAlign=top;align=left;overflow=fill;html=1;whiteSpace=wrap;" vertex="1" parent="1">
          <mxGeometry x="380" y="306" width="277" height="144" as="geometry" />
        </mxCell>
        <mxCell id="wIotQ41QkvTkbfuaxGu--10" value="&lt;p style=&quot;margin:0px;margin-top:4px;text-align:center;&quot;&gt;&lt;i&gt;&amp;lt;&amp;lt;Interface&amp;gt;&amp;gt;&lt;/i&gt;&lt;br&gt;&lt;b&gt;IAuth&lt;/b&gt;&lt;/p&gt;&lt;hr size=&quot;1&quot; style=&quot;border-style:solid;&quot;&gt;&lt;p style=&quot;margin:0px;margin-left:4px;&quot;&gt;+ login(username:String, password:String, id:String) : User&lt;/p&gt;&lt;p style=&quot;margin:0px;margin-left:4px;&quot;&gt;+ signup(username:String, password:String, id:String, email:String) : boolean&lt;/p&gt;" style="verticalAlign=top;align=left;overflow=fill;html=1;whiteSpace=wrap;" vertex="1" parent="1">
          <mxGeometry x="441" y="99" width="190" height="131" as="geometry" />
        </mxCell>
        <mxCell id="wIotQ41QkvTkbfuaxGu--12" value="" style="endArrow=block;dashed=1;endFill=0;endSize=12;html=1;rounded=0;entryX=0.25;entryY=1;entryDx=0;entryDy=0;exitX=0.463;exitY=0.005;exitDx=0;exitDy=0;exitPerimeter=0;" edge="1" parent="1" source="wIotQ41QkvTkbfuaxGu--9" target="wIotQ41QkvTkbfuaxGu--10">
          <mxGeometry width="160" relative="1" as="geometry">
            <mxPoint x="342" y="369" as="sourcePoint" />
            <mxPoint x="502" y="369" as="targetPoint" />
          </mxGeometry>
        </mxCell>
        <mxCell id="wIotQ41QkvTkbfuaxGu--13" value="&lt;p style=&quot;margin:0px;margin-top:4px;text-align:center;&quot;&gt;&lt;b&gt;Enrollment&amp;nbsp;&lt;/b&gt;&lt;/p&gt;&lt;hr size=&quot;1&quot; style=&quot;border-style:solid;&quot;&gt;&lt;p style=&quot;margin:0px;margin-left:4px;&quot;&gt;- studentId : String&lt;/p&gt;&lt;p style=&quot;margin:0px;margin-left:4px;&quot;&gt;- courseId : String&lt;/p&gt;&lt;p style=&quot;margin:0px;margin-left:4px;&quot;&gt;- status : Boolean&lt;/p&gt;&lt;hr size=&quot;1&quot; style=&quot;border-style:solid;&quot;&gt;&lt;p style=&quot;margin:0px;margin-left:4px;&quot;&gt;+ enroll(student:Student, course:Course) : void&lt;/p&gt;&lt;p style=&quot;margin:0px;margin-left:4px;&quot;&gt;+ drop(student:Student, course:Course) : void&lt;/p&gt;&lt;p style=&quot;margin:0px;margin-left:4px;&quot;&gt;+ getStatus() : String&lt;/p&gt;&lt;p style=&quot;margin:0px;margin-left:4px;&quot;&gt;+ setStatus(status:String) : void&lt;/p&gt;" style="verticalAlign=top;align=left;overflow=fill;html=1;whiteSpace=wrap;" vertex="1" parent="1">
          <mxGeometry x="664" y="920" width="277" height="144" as="geometry" />
        </mxCell>
        <mxCell id="wIotQ41QkvTkbfuaxGu--14" value="&lt;p style=&quot;margin:0px;margin-top:4px;text-align:center;&quot;&gt;&lt;i&gt;&amp;lt;&amp;lt;Interface&amp;gt;&amp;gt;&lt;/i&gt;&lt;br&gt;&lt;b&gt;I&lt;/b&gt;&lt;b style=&quot;background-color: transparent; color: light-dark(rgb(0, 0, 0), rgb(255, 255, 255));&quot;&gt;Enrollment&amp;nbsp;&lt;/b&gt;&lt;/p&gt;&lt;hr size=&quot;1&quot; style=&quot;border-style:solid;&quot;&gt;&lt;p style=&quot;margin:0px;margin-left:4px;&quot;&gt;+ enroll(student:Student, course:Course) : void&lt;/p&gt;&lt;p style=&quot;margin:0px;margin-left:4px;&quot;&gt;+ drop(student:Student, course:Course) : void&lt;/p&gt;&lt;div&gt;&lt;br&gt;&lt;/div&gt;" style="verticalAlign=top;align=left;overflow=fill;html=1;whiteSpace=wrap;" vertex="1" parent="1">
          <mxGeometry x="510" y="744" width="256" height="96" as="geometry" />
        </mxCell>
        <mxCell id="wIotQ41QkvTkbfuaxGu--15" value="" style="endArrow=block;dashed=1;endFill=0;endSize=12;html=1;rounded=0;entryX=0.5;entryY=1;entryDx=0;entryDy=0;exitX=0.43;exitY=0;exitDx=0;exitDy=0;exitPerimeter=0;" edge="1" parent="1" source="wIotQ41QkvTkbfuaxGu--13" target="wIotQ41QkvTkbfuaxGu--14">
          <mxGeometry width="160" relative="1" as="geometry">
            <mxPoint x="864" y="328" as="sourcePoint" />
            <mxPoint x="768" y="240" as="targetPoint" />
            <Array as="points">
              <mxPoint x="712" y="872" />
            </Array>
          </mxGeometry>
        </mxCell>
        <mxCell id="wIotQ41QkvTkbfuaxGu--16" value="&lt;p style=&quot;margin:0px;margin-top:4px;text-align:center;&quot;&gt;&lt;b&gt;ReportGenrator&lt;/b&gt;&lt;/p&gt;&lt;hr size=&quot;1&quot; style=&quot;border-style:solid;&quot;&gt;&lt;p style=&quot;margin:0px;margin-left:4px;&quot;&gt;&lt;br&gt;&lt;/p&gt;&lt;hr size=&quot;1&quot; style=&quot;border-style:solid;&quot;&gt;&lt;p style=&quot;margin:0px;margin-left:4px;&quot;&gt;&lt;span style=&quot;background-color: transparent; color: light-dark(rgb(0, 0, 0), rgb(255, 255, 255));&quot;&gt;+ generatePaymentReport(student:Student) : String&lt;/span&gt;&lt;/p&gt;&lt;p style=&quot;margin:0px;margin-left:4px;&quot;&gt;+ generateCourseReport(course:Course) : String&lt;/p&gt;&lt;div&gt;&lt;br&gt;&lt;/div&gt;" style="verticalAlign=top;align=left;overflow=fill;html=1;whiteSpace=wrap;" vertex="1" parent="1">
          <mxGeometry x="380" y="1136" width="277" height="128" as="geometry" />
        </mxCell>
        <mxCell id="wIotQ41QkvTkbfuaxGu--18" value="&lt;p style=&quot;margin:0px;margin-top:4px;text-align:center;&quot;&gt;&lt;i&gt;&amp;lt;&amp;lt;Interface&amp;gt;&amp;gt;&lt;/i&gt;&lt;br&gt;&lt;b&gt;I&lt;/b&gt;&lt;b style=&quot;background-color: transparent; color: light-dark(rgb(0, 0, 0), rgb(255, 255, 255));&quot;&gt;ReportGenrator&amp;nbsp;&lt;/b&gt;&lt;/p&gt;&lt;hr size=&quot;1&quot; style=&quot;border-style:solid;&quot;&gt;&lt;p style=&quot;margin:0px;margin-left:4px;&quot;&gt;+ generatePaymentReport(student:Student) : String&lt;/p&gt;&lt;p style=&quot;margin:0px;margin-left:4px;&quot;&gt;+ generateCourseReport(course:Course) : String&lt;/p&gt;&lt;div&gt;&lt;br&gt;&lt;/div&gt;&lt;div&gt;&lt;br&gt;&lt;/div&gt;" style="verticalAlign=top;align=left;overflow=fill;html=1;whiteSpace=wrap;" vertex="1" parent="1">
          <mxGeometry x="368" y="916" width="280" height="104" as="geometry" />
        </mxCell>
        <mxCell id="wIotQ41QkvTkbfuaxGu--19" value="" style="endArrow=block;dashed=1;endFill=0;endSize=12;html=1;rounded=0;entryX=0.5;entryY=1;entryDx=0;entryDy=0;" edge="1" parent="1">
          <mxGeometry width="160" relative="1" as="geometry">
            <mxPoint x="504" y="1131.5" as="sourcePoint" />
            <mxPoint x="504" y="1020" as="targetPoint" />
            <Array as="points">
              <mxPoint x="504" y="1068" />
            </Array>
          </mxGeometry>
        </mxCell>
        <mxCell id="wIotQ41QkvTkbfuaxGu--20" value="&lt;p style=&quot;margin:0px;margin-top:4px;text-align:center;&quot;&gt;&lt;b&gt;Course&lt;/b&gt;&lt;/p&gt;&lt;hr size=&quot;1&quot; style=&quot;border-style:solid;&quot;&gt;&lt;p style=&quot;margin:0px;margin-left:4px;&quot;&gt;- courseId : String&lt;/p&gt;&lt;p style=&quot;margin:0px;margin-left:4px;&quot;&gt;- name : String&lt;/p&gt;&lt;p style=&quot;margin:0px;margin-left:4px;&quot;&gt;- drName : String&lt;/p&gt;&lt;p style=&quot;margin:0px;margin-left:4px;&quot;&gt;- date : Date&lt;/p&gt;&lt;p style=&quot;margin:0px;margin-left:4px;&quot;&gt;- hours : int&lt;/p&gt;&lt;hr size=&quot;1&quot; style=&quot;border-style:solid;&quot;&gt;&lt;p style=&quot;margin:0px;margin-left:4px;&quot;&gt;+ getCourseId() : String&lt;/p&gt;&lt;p style=&quot;margin:0px;margin-left:4px;&quot;&gt;+ setCourseId(courseId:String) : void&lt;/p&gt;&lt;p style=&quot;margin:0px;margin-left:4px;&quot;&gt;+ getName() : String&lt;/p&gt;&lt;p style=&quot;margin:0px;margin-left:4px;&quot;&gt;+ setName(name:String) : void&lt;/p&gt;&lt;p style=&quot;margin:0px;margin-left:4px;&quot;&gt;+ getDrName() : String&lt;/p&gt;&lt;p style=&quot;margin:0px;margin-left:4px;&quot;&gt;+ setDrName(drName:String) : void&lt;/p&gt;&lt;p style=&quot;margin:0px;margin-left:4px;&quot;&gt;+ getDate() : Date&lt;/p&gt;&lt;p style=&quot;margin:0px;margin-left:4px;&quot;&gt;+ setDate(date:Date) : void&lt;/p&gt;&lt;p style=&quot;margin:0px;margin-left:4px;&quot;&gt;+ getHours() : int&lt;/p&gt;&lt;p style=&quot;margin:0px;margin-left:4px;&quot;&gt;+ setHours(hours:int) : void&lt;/p&gt;&lt;div&gt;&lt;br&gt;&lt;/div&gt;" style="verticalAlign=top;align=left;overflow=fill;html=1;whiteSpace=wrap;" vertex="1" parent="1">
          <mxGeometry x="40" y="832" width="312" height="272" as="geometry" />
        </mxCell>
        <mxCell id="wIotQ41QkvTkbfuaxGu--21" value="&lt;p style=&quot;margin:0px;margin-top:4px;text-align:center;&quot;&gt;MySQLUserRepository&lt;/p&gt;&lt;hr size=&quot;1&quot; style=&quot;border-style:solid;&quot;&gt;&lt;p style=&quot;margin:0px;margin-left:4px;&quot;&gt;&lt;code class=&quot;whitespace-pre! language-java&quot;&gt;&lt;font face=&quot;Helvetica&quot;&gt;- connection : Connection&lt;/font&gt;&lt;/code&gt;&lt;/p&gt;&lt;hr size=&quot;1&quot; style=&quot;border-style:solid;&quot;&gt;&lt;p style=&quot;margin:0px;margin-left:4px;&quot;&gt;+ findById(id:String) : User&lt;/p&gt;&lt;p style=&quot;margin:0px;margin-left:4px;&quot;&gt;+ save(user:User) : void&lt;/p&gt;&lt;p style=&quot;margin:0px;margin-left:4px;&quot;&gt;+ delete(userId:String) : void&lt;/p&gt;" style="verticalAlign=top;align=left;overflow=fill;html=1;whiteSpace=wrap;" vertex="1" parent="1">
          <mxGeometry x="840" y="696" width="277" height="128" as="geometry" />
        </mxCell>
        <mxCell id="wIotQ41QkvTkbfuaxGu--22" value="&lt;p style=&quot;margin:0px;margin-top:4px;text-align:center;&quot;&gt;&lt;i&gt;&amp;lt;&amp;lt;Interface&amp;gt;&amp;gt;&lt;/i&gt;&lt;br&gt;&lt;b&gt;IUserRepository&lt;span style=&quot;background-color: transparent; color: light-dark(rgb(0, 0, 0), rgb(255, 255, 255));&quot;&gt;&amp;nbsp;&lt;/span&gt;&lt;/b&gt;&lt;/p&gt;&lt;hr size=&quot;1&quot; style=&quot;border-style:solid;&quot;&gt;&lt;p style=&quot;margin:0px;margin-left:4px;&quot;&gt;+ findById(id:String) : User&lt;/p&gt;&lt;p style=&quot;margin:0px;margin-left:4px;&quot;&gt;+ save(user:User) : void&lt;/p&gt;&lt;p style=&quot;margin:0px;margin-left:4px;&quot;&gt;+ delete(userId:String) : void&lt;/p&gt;&lt;div&gt;&lt;br&gt;&lt;/div&gt;" style="verticalAlign=top;align=left;overflow=fill;html=1;whiteSpace=wrap;" vertex="1" parent="1">
          <mxGeometry x="837" y="536" width="280" height="104" as="geometry" />
        </mxCell>
        <mxCell id="wIotQ41QkvTkbfuaxGu--23" value="" style="endArrow=block;dashed=1;endFill=0;endSize=12;html=1;rounded=0;exitX=0.422;exitY=-0.021;exitDx=0;exitDy=0;exitPerimeter=0;entryX=0.452;entryY=1;entryDx=0;entryDy=0;entryPerimeter=0;" edge="1" parent="1" source="wIotQ41QkvTkbfuaxGu--21" target="wIotQ41QkvTkbfuaxGu--22">
          <mxGeometry width="160" relative="1" as="geometry">
            <mxPoint x="984" y="528" as="sourcePoint" />
            <mxPoint x="1144" y="528" as="targetPoint" />
          </mxGeometry>
        </mxCell>
        <mxCell id="wIotQ41QkvTkbfuaxGu--26" value="" style="endArrow=classicThin;html=1;edgeStyle=orthogonalEdgeStyle;rounded=0;exitX=0.65;exitY=0.986;exitDx=0;exitDy=0;exitPerimeter=0;entryX=0;entryY=0.25;entryDx=0;entryDy=0;endFill=1;" edge="1" parent="1" source="wIotQ41QkvTkbfuaxGu--9" target="wIotQ41QkvTkbfuaxGu--22">
          <mxGeometry relative="1" as="geometry">
            <mxPoint x="568" y="488" as="sourcePoint" />
            <mxPoint x="728" y="488" as="targetPoint" />
            <Array as="points">
              <mxPoint x="560" y="512" />
              <mxPoint x="747" y="512" />
              <mxPoint x="747" y="562" />
            </Array>
          </mxGeometry>
        </mxCell>
        <mxCell id="wIotQ41QkvTkbfuaxGu--30" value="" style="endArrow=diamondThin;endFill=0;endSize=24;html=1;rounded=0;exitX=1.001;exitY=0.817;exitDx=0;exitDy=0;exitPerimeter=0;entryX=0.184;entryY=-0.042;entryDx=0;entryDy=0;entryPerimeter=0;" edge="1" parent="1" source="wIotQ41QkvTkbfuaxGu--7" target="wIotQ41QkvTkbfuaxGu--14">
          <mxGeometry width="160" relative="1" as="geometry">
            <mxPoint x="408" y="768" as="sourcePoint" />
            <mxPoint x="568" y="768" as="targetPoint" />
          </mxGeometry>
        </mxCell>
        <mxCell id="wIotQ41QkvTkbfuaxGu--31" value="" style="endArrow=open;endFill=1;endSize=12;html=1;rounded=0;entryX=1.005;entryY=0.127;entryDx=0;entryDy=0;entryPerimeter=0;exitX=0;exitY=0.5;exitDx=0;exitDy=0;" edge="1" parent="1" source="wIotQ41QkvTkbfuaxGu--14" target="wIotQ41QkvTkbfuaxGu--20">
          <mxGeometry width="160" relative="1" as="geometry">
            <mxPoint x="408" y="768" as="sourcePoint" />
            <mxPoint x="568" y="768" as="targetPoint" />
          </mxGeometry>
        </mxCell>
        <mxCell id="wIotQ41QkvTkbfuaxGu--32" value="" style="endArrow=open;endFill=1;endSize=12;html=1;rounded=0;entryX=0.313;entryY=-0.005;entryDx=0;entryDy=0;entryPerimeter=0;" edge="1" parent="1" target="wIotQ41QkvTkbfuaxGu--20">
          <mxGeometry width="160" relative="1" as="geometry">
            <mxPoint x="128" y="664" as="sourcePoint" />
            <mxPoint x="280" y="680" as="targetPoint" />
          </mxGeometry>
        </mxCell>
        <mxCell id="wIotQ41QkvTkbfuaxGu--33" value="" style="endArrow=open;endFill=1;endSize=12;html=1;rounded=0;exitX=0.999;exitY=0.221;exitDx=0;exitDy=0;exitPerimeter=0;entryX=0.213;entryY=0.006;entryDx=0;entryDy=0;entryPerimeter=0;" edge="1" parent="1" source="wIotQ41QkvTkbfuaxGu--20" target="wIotQ41QkvTkbfuaxGu--18">
          <mxGeometry width="160" relative="1" as="geometry">
            <mxPoint x="584" y="768" as="sourcePoint" />
            <mxPoint x="416" y="872" as="targetPoint" />
          </mxGeometry>
        </mxCell>
        <mxCell id="wIotQ41QkvTkbfuaxGu--34" value="" style="endArrow=open;endFill=1;endSize=12;html=1;rounded=0;exitX=0.348;exitY=1.025;exitDx=0;exitDy=0;exitPerimeter=0;entryX=0.477;entryY=0;entryDx=0;entryDy=0;entryPerimeter=0;" edge="1" parent="1" source="wIotQ41QkvTkbfuaxGu--7" target="wIotQ41QkvTkbfuaxGu--18">
          <mxGeometry width="160" relative="1" as="geometry">
            <mxPoint x="473" y="924" as="sourcePoint" />
            <mxPoint x="360" y="887" as="targetPoint" />
          </mxGeometry>
        </mxCell>
      </root>
    </mxGraphModel>
  </diagram>
</mxfile>
